<?xml version="1.0" encoding="utf-8" ?><svg xmlns="http://www.w3.org/2000/svg" xmlns:xlink="http://www.w3.org/1999/xlink" width="314" height="351" viewBox="0 0 314 351"><clipPath id="cl_3"><rect x="-3.0517578e-05" y="-3.0517578e-05" width="313.99997" height="350.99997"/></clipPath><g clip-path="url(#cl_3)"><path fill="white" transform="matrix(0.993671 0 0 0.994334 -261.335 -3.05176e-05)" d="M0 0L801 0L801 562L0 562L0 0Z"/><path fill="#313B45" transform="matrix(0.993671 0 0 0.994334 -261.335 -3.05176e-05)" d="M293.617 211.904C289.586 200.736 290.601 180.65 290.628 168.445L290.722 123.812L290.723 86.2577C290.755 74.2727 289.811 62.5208 294.598 51.0421C301.896 33.5408 326.292 25.4355 342.867 34.074C355.912 40.8727 369.749 50.2449 382.608 58.1794L461.09 106.815L522.358 144.72C529.445 149.073 536.5 153.478 543.523 157.932C552.986 163.894 560.736 167.66 564.447 179.339C569.169 194.194 565.005 210.645 552.007 219.861C544.17 225.197 535.492 230.007 527.368 235.013L461.783 274.602L415.929 302.599C409.406 306.582 397.28 314.55 390.848 317.103C385.277 321.439 375.831 326.815 369.589 330.59C363.23 334.436 353.49 340.663 346.826 343.329C343.242 344.728 339.471 345.593 335.635 345.895C324.762 346.834 313.962 343.401 305.627 336.354C299.422 331.016 294.738 323.495 292.8 315.554C290.098 304.481 291.054 290.133 290.967 278.619C290.864 264.854 290.761 250.631 291.744 236.969C292.415 227.628 294.294 221.407 293.617 211.904Z"/><path fill="white" transform="matrix(0.993671 0 0 0.994334 -261.335 -3.05176e-05)" d="M293.617 211.904C289.586 200.736 290.601 180.65 290.628 168.445L290.722 123.812L290.723 86.2577C290.755 74.2727 289.811 62.5208 294.598 51.0421C301.896 33.5408 326.292 25.4355 342.867 34.074C355.912 40.8727 369.749 50.2449 382.608 58.1794L461.09 106.815L522.358 144.72C529.445 149.073 536.5 153.478 543.523 157.932C552.986 163.894 560.736 167.66 564.447 179.339C569.169 194.194 565.005 210.645 552.007 219.861C544.17 225.197 535.492 230.007 527.368 235.013L461.783 274.602L415.929 302.599C409.406 306.582 397.28 314.55 390.848 317.103C391.332 316.017 392.262 314.663 392.887 313.601C395.881 308.507 397.342 303.198 399.117 297.611C402.099 283.973 403.171 266.864 410.489 254.868C416.34 245.275 426.725 244.926 436.874 244.52C456.446 243.737 477.651 238.015 489.13 220.746C496.643 210.283 497.539 199.013 498.108 187.109C498.955 169.367 495.703 164.71 477.659 164.384C469.079 164.228 456.017 163.74 448.06 160.51C443.178 158.529 437.816 149.998 434.199 145.816C431.277 142.452 427.923 139.489 424.223 137.005C410.412 127.716 392.416 125.445 376.239 128.485C342.341 134.854 321.81 162.383 303.672 189.287C298.351 199.22 296.673 200.137 293.617 211.904Z"/><path fill="#FB7307" transform="matrix(0.993671 0 0 0.994334 -261.335 -3.05176e-05)" d="M293.617 211.904C289.586 200.736 290.601 180.65 290.628 168.445L290.722 123.812L290.723 86.2577C290.755 74.2727 289.811 62.5208 294.598 51.0421C301.896 33.5408 326.292 25.4355 342.867 34.074C355.912 40.8727 369.749 50.2449 382.608 58.1794L461.09 106.815L522.358 144.72C529.445 149.073 536.5 153.478 543.523 157.932C552.986 163.894 560.736 167.66 564.447 179.339C569.169 194.194 565.005 210.645 552.007 219.861C544.17 225.197 535.492 230.007 527.368 235.013L461.783 274.602L415.929 302.599C409.406 306.582 397.28 314.55 390.848 317.103C391.332 316.017 392.262 314.663 392.887 313.601C395.881 308.507 397.342 303.198 399.117 297.611C400.575 296.961 404.167 294.63 405.677 293.72C410.43 290.884 415.158 288.007 419.86 285.088L453.834 264.401L516.749 226.248C526.337 220.451 540.264 213.368 548.319 206.046C555.945 199.115 555.157 181.512 546.568 175.381C542.882 172.751 538.971 170.337 534.873 167.85C529.422 164.54 523.997 161.189 518.599 157.796L455.02 118.425L375.192 68.8834L353.666 55.6178C344.646 49.958 335.813 42.6529 324.596 43.4741C316.058 44.0991 305.463 53.4301 304.398 61.7978C303.263 70.7248 303.515 81.8124 303.51 90.9044L303.535 137.778L303.548 171.498C303.544 176.276 303.217 184.862 303.672 189.287C298.351 199.22 296.673 200.137 293.617 211.904Z"/><path fill="white" transform="matrix(0.993671 0 0 0.994334 -261.335 -3.05176e-05)" d="M383.908 139.361C398.152 137.532 414.88 142.046 424.589 152.957C431.776 161.034 436.222 169.689 447.659 172.764C454.933 174.72 461.486 174.798 468.944 175.1C469.709 186.477 474.026 192.438 485.897 194.151C485.714 202.294 482.8 210.141 477.622 216.43C467.418 228.637 451.973 231.496 436.969 232.568C426.609 233.309 417.577 233.223 408.767 239.625C392.009 251.802 391.952 275.657 387.781 294.063C386.697 298.849 385.517 303.999 381.981 307.618C378.494 311.189 348.113 329.227 343.047 331.284C339.648 332.68 336.011 333.403 332.337 333.412C324.766 333.444 317.672 330.705 312.292 325.332C308.686 321.749 306.088 317.277 304.762 312.369C303.026 305.811 303.482 294.741 303.484 287.541L303.512 260.272C303.442 251.528 303.591 242.784 303.961 234.047C304.797 234.877 305.64 235.7 306.489 236.515C318.38 247.919 340.546 265.729 358.07 256.686C388.542 240.96 369.618 200.005 368.72 174.463C368.405 169.738 360.334 169.021 358.901 172.625C355.717 180.634 360.262 196.431 361.382 204.492C363.048 216.496 366.305 230.285 359.035 240.747C352.015 250.849 336.923 246.234 329.311 239.572C323.632 234.746 306.58 223.281 306.218 215.785C305.609 203.196 320.822 186.623 327.508 176.636C341.831 157.787 359.585 142.327 383.908 139.361Z"/><path fill="#313B45" transform="matrix(0.993671 0 0 0.994334 -261.335 -3.05176e-05)" d="M411.873 169.081C415.872 169.148 420.823 170.209 423.045 174.211C423.941 175.826 424.458 178.157 423.844 179.946C420.402 184.413 414.843 178.682 409.579 180.203C407.742 181.366 404.731 184.82 403.067 185.037C396.668 185.871 398.182 177.035 401.008 173.994C404.517 170.216 407.079 169.615 411.873 169.081Z"/><path fill="#FB7307" transform="matrix(0.993671 0 0 0.994334 -261.335 -3.05176e-05)" d="M495.72 54.0472C520.554 52.9532 543.306 66.4766 553.471 89.3533C556.836 96.9256 559.847 109.536 557.932 117.793C557.62 119.141 555.794 119.781 554.618 120.247C552.27 120.298 549.655 120.397 548.768 117.752C547.754 114.724 548 111.393 547.716 108.275C547.037 100.822 544.201 93.712 540.168 87.4549C533.024 75.6118 521.715 68.4452 508.261 65.9071C503.09 64.9315 489.707 66.9455 492.095 58.4369C492.77 56.034 493.68 55.2053 495.72 54.0472Z"/><path fill="#FB7307" transform="matrix(0.993671 0 0 0.994334 -261.335 -3.05176e-05)" d="M498.721 77.195C519.906 77.8732 534.377 92.0592 536.37 113.046C536.845 118.046 534.677 120.575 529.8 120.662C527.447 119.461 526.125 117.65 525.933 115.014C524.835 99.9516 516.228 88.445 500.138 88.1826C491.17 88.0364 486.917 78.5875 498.721 77.195Z"/><path fill="#FB7307" transform="matrix(0.993671 0 0 0.994334 -261.335 -3.05176e-05)" d="M495.195 99.7921C497.666 99.5239 500.107 99.6178 502.502 100.322C507.131 101.652 511.012 104.821 513.239 109.091C515.668 113.696 515.891 117.996 510.809 120.642C504.612 121.383 505.945 114.346 502.668 111.7C500.073 109.603 493.909 109.651 491.766 106.236C490.202 103.743 493.324 100.88 495.195 99.7921Z"/></g></svg>