<?xml version="1.0" encoding="utf-8" ?><svg xmlns="http://www.w3.org/2000/svg" xmlns:xlink="http://www.w3.org/1999/xlink" width="586" height="426" viewBox="0 0 586 426"><path fill="#323944" d="M215.047 166.789C211.683 158.44 212.521 142.553 212.572 133.315L212.606 104.222L212.597 78.2995C212.534 61.8139 210.607 43.5242 229.273 36.202C245.129 29.9825 255.701 39.8736 268.51 47.4289C273.699 50.4895 278.45 53.8609 283.448 56.9354L356.312 102.118C372.889 112.507 390.139 121.821 406.055 133.167C407.455 134.165 408.831 136.872 409.732 138.313C414.405 146.29 413.839 155.456 409.984 163.617C406.117 171.8 398.355 174.948 391.14 179.366C374.01 189.855 356.867 200.332 339.738 210.809L301.884 233.496C299.407 234.949 297.03 236.881 294.575 238.35C291.904 239.948 288.729 241.396 285.896 242.747C283.393 244.076 281.038 246.588 278.777 247.811C269.179 253.002 256.721 262.667 245.742 263.77C238.033 264.607 230.312 262.302 224.322 257.377C221.561 255.102 217.071 250.325 215.881 246.954C212.232 236.622 213.052 225.776 213.003 215.018C213.062 205.369 212.899 195.575 213.47 185.943C213.846 179.599 215.794 173.673 215.086 167.134L215.047 166.789ZM222.58 182.618C222.608 188.798 222.294 195.256 222.277 201.556C222.208 208.758 222.184 215.961 222.203 223.163C222.263 230.725 221.954 241.966 227.62 247.777C231.409 251.663 237.321 254.651 242.848 254.512C248.317 254.375 250.568 253.359 255.116 250.501C256.63 249.55 258.897 248.771 260.47 247.798C265.857 243.79 274.003 240.169 278.986 236.066C280.796 231.539 282.45 227.982 283.68 223.366C287.071 210.635 287.028 190.116 301.548 184.546C313.797 179.848 329.496 182.424 341.758 175.424C345.429 173.328 350.53 167.669 352.199 163.689C353.122 161.109 353.727 156.695 354.251 153.823C349.606 151.867 348.466 151.587 344.294 148.815C343.316 145.956 342.707 143.023 342.036 140.077C330.372 138.942 321.759 139.392 313.895 128.594C305.156 116.595 295.345 112.551 280.872 113.69C257.583 115.746 240.557 137.143 229.309 155.655C227.626 158.424 225.105 160.706 224.732 164.008C223.61 173.931 226.145 173.692 232.387 179.261C239.39 185.51 253.183 198.404 261.818 187.227C270.698 174.766 260.663 156.11 261.173 142.207C261.298 139.026 261.579 137.771 264.072 135.849C272.904 136.669 269.534 145.097 270.803 151.612C273.453 165.228 278.547 184.7 266.719 195.568C262.645 199.312 257.248 201.427 251.922 200.628C243.625 199.54 234.719 193.804 228.643 188.245C226.486 186.271 224.522 185.011 222.58 182.618ZM222.498 147.962L222.558 148.798L222.851 148.979C224.299 147.242 225.303 144.422 226.961 142.328C234.622 132.648 242.452 121.748 252.89 114.794C260.345 109.827 270.385 105.579 279.27 104.687C292.004 103.274 303.78 106.464 313.694 114.711C318.406 118.631 322.414 126.62 328.14 129.545C337.975 134.565 362.788 124.859 363.08 141.739C363.187 147.891 363.018 160.725 360.774 166.163C354.411 181.581 339.448 188.273 323.601 189.602C315.838 190.254 304.114 190.107 299.414 198.15C295.128 207.298 293.658 218.902 291.38 228.819C312.821 215.004 334.506 201.57 356.424 188.524C361.922 185.244 367.56 182.551 372.778 178.73C374.656 177.355 377.545 176.212 379.593 174.846C382.366 172.995 385.271 171.26 388.044 169.399C392.554 167.469 394.536 165.5 398.318 162.664C404.384 158.117 404.97 147.105 400.004 141.737C395.855 137.252 386.997 132.806 381.368 129.298L336.967 101.879L280.184 66.4862C269.271 59.667 258.334 52.8137 247.244 46.3026C240.145 42.1352 232.69 43.8597 227.119 49.6483C221.768 55.2092 222.464 66.2629 222.513 73.4339L222.536 90.0417L222.498 147.962Z"/><path fill="#FD7308" d="M215.047 166.789C211.683 158.44 212.521 142.553 212.572 133.315L212.606 104.222L212.597 78.2995C212.534 61.8139 210.607 43.5242 229.273 36.202C245.129 29.9825 255.701 39.8736 268.51 47.4289C273.699 50.4895 278.45 53.8609 283.448 56.9354L356.312 102.118C372.889 112.507 390.139 121.821 406.055 133.167C407.455 134.165 408.831 136.872 409.732 138.313C414.405 146.29 413.839 155.456 409.984 163.617C406.117 171.8 398.355 174.948 391.14 179.366C374.01 189.855 356.867 200.332 339.738 210.809L301.884 233.496C299.407 234.949 297.03 236.881 294.575 238.35C291.904 239.948 288.729 241.396 285.896 242.747C285.919 242.571 290.809 230.377 291.38 228.819C312.821 215.004 334.506 201.57 356.424 188.524C361.922 185.244 367.56 182.551 372.778 178.73C374.656 177.355 377.545 176.212 379.593 174.846C382.366 172.995 385.271 171.26 388.044 169.399C392.554 167.469 394.536 165.5 398.318 162.664C404.384 158.117 404.97 147.105 400.004 141.737C395.855 137.252 386.997 132.806 381.368 129.298L336.967 101.879L280.184 66.4862C269.271 59.667 258.334 52.8137 247.244 46.3026C240.145 42.1352 232.69 43.8597 227.119 49.6483C221.768 55.2092 222.464 66.2629 222.513 73.4339L222.536 90.0417L222.498 147.962C222.56 151.183 218.054 156.369 216.773 159.859C216.271 161.228 215.263 166.38 215.047 166.789Z"/><path fill="#323944" d="M299.215 135.121C303.177 134.784 309.682 136.551 309.507 141.92C309.47 143.045 307.689 144.113 306.78 144.738C304.637 143.608 301.64 142.652 299.18 142.981C297.786 144.14 296.852 145.852 295.102 146.662C290.891 148.611 290.01 143.526 291.629 140.629C293.387 137.485 295.937 136.225 299.215 135.121Z"/><path fill="#323944" d="M114.226 276.303L114.545 276.397C115.303 277.865 114.828 344.359 115.122 351.215C110.955 351.167 106.694 351.237 102.514 351.227C102.679 339.97 102.389 328.672 102.58 317.413C102.681 311.502 102.721 305.688 102.602 299.777C101.35 302.116 99.3974 304.617 97.9351 306.945C91.9915 316.406 86.4509 327.735 79.7304 336.547C77.3342 336.708 75.9332 336.616 73.5758 336.456C70.7805 333.139 69.1854 329.371 67.0864 325.648C65.7559 323.288 63.474 320.572 62.1702 318.256C58.5349 311.798 55.526 306.512 50.9458 300.639C50.7903 305.964 50.9485 311.916 50.9898 317.29L50.9672 338.389C50.9673 342.386 50.8481 347.342 51.1582 351.268C47.531 351.174 42.4346 351.077 38.906 351.432L38.9397 276.318C42.5998 276.507 47.2276 276.393 50.9604 276.405C55.6566 282.585 59.4163 290.297 63.5251 296.891C68.3397 304.618 72.383 312.42 77.5168 319.981C78.9471 314.661 80.6368 313.266 83.4486 308.618L94.1483 290.712C96.8047 286.337 99.1329 280.924 102.492 276.882C104.378 275.915 111.752 276.298 114.226 276.303Z"/><path fill="#FD7308" d="M400.753 276.308C409.963 276.506 419.31 276.023 428.513 276.297C436.158 276.47 441.273 275.856 447.85 280.276C460.764 288.674 462.652 306.084 452.457 317.471C447.338 323.188 439.612 324.886 432.258 325.473C427.152 325.533 418.812 325.818 413.885 325.394C414.003 326.563 414.01 327.73 414.028 328.904C414.141 336.338 414.026 343.785 414.348 351.215C411.009 351.542 404.465 351.448 400.817 351.561C400.989 326.477 400.968 301.392 400.753 276.308ZM413.809 287.176C414.139 290.59 413.951 294.864 413.936 298.361L413.993 314.32C422.905 314.451 429.052 314.929 437.711 312.532C446.802 310.843 447.727 294.607 440.667 290.154C435.989 287.203 425.641 286.355 420.069 287.099C417.758 287.223 416.105 287.234 413.809 287.176Z"/><path fill="#FD7308" d="M488.902 295.93C502.426 294.483 513.737 305.267 516.041 317.984C516.691 321.572 516.761 324.5 516.747 328.127C508.359 328.472 499.976 328.289 491.572 328.233C486.072 328.196 479.699 328.504 474.313 328.19C476.939 334.737 479.711 340.457 487.394 341.53C495.557 342.671 500.269 339.623 506.507 335.171C507.428 335.065 507.005 334.974 507.81 335.491C510.164 338.318 511.805 339.375 514.753 341.545C508.141 349.481 504.127 350.974 493.9 352.507C487.727 353.432 477.283 351.312 472.674 347.186C467.419 342.183 463.207 337.425 462.389 330.031C460.337 311.49 469.086 297.623 488.902 295.93ZM474.789 319.323L491.219 319.283C495.324 319.279 500.237 319.16 504.28 319.295C500.849 310.518 497.972 305.809 487.725 306.492L487.534 306.507C480.088 308.729 476.956 311.764 474.789 319.323Z"/><path fill="#323944" d="M354.22 296.187C368.665 294.529 380.472 301.478 383.952 315.794C384.994 320.079 384.915 323.761 384.954 328.118C376.889 328.183 368.825 328.198 360.76 328.163C358.027 328.154 345.882 327.89 343.862 328.525L343.613 329.144C343.728 331.159 345.716 335.293 347.111 336.729C355.451 345.308 367.076 342.231 374.918 335.283C378.55 336.853 379.681 339.168 383.026 341.446C378.195 347.928 375.978 349.285 367.928 351.513C359.922 353.49 350.596 352.31 343.382 348.267C329.287 340.366 328.661 320.025 335.954 307.344C339.176 301.741 347.929 297.607 354.22 296.187ZM343.593 319.255L359.812 319.267C362.338 319.28 370.213 319.475 372.307 319.13C372.309 317.924 371.865 317.023 371.568 315.887C369.848 309.329 363.657 305.584 356.984 306.206C350.031 307.424 344.971 312.383 343.593 319.255Z"/><path fill="#323944" d="M168.027 297.239C171.972 297.114 176.863 297.251 180.874 297.266C179.13 300.237 178.612 304.304 177.23 307.542C174.182 314.683 170.795 321.441 168.401 328.842C167.637 331.203 165.843 334.649 164.805 336.989C157.532 352.185 154.456 376.034 131.067 369.914C129.397 369.476 128.075 368.947 126.509 368.233C127.825 365.3 128.591 361.582 130.008 358.261C130.482 358.481 130.96 358.691 131.442 358.892C139.696 362.305 143.342 358.447 146.241 351.171C143.84 346.467 142.403 341.715 140.455 336.899C137.529 329.666 133.749 322.557 131.437 315.076C130.059 310.617 124.245 301.478 123.586 297.331C127.634 297.125 133.029 297.194 137.062 297.276C138.751 303.049 141.919 309.555 143.797 315.524C145.322 320.371 148.778 325.655 150.261 330.66C150.952 332.991 151.594 335.245 152.27 337.561C154.173 332.93 157.85 325.343 159.079 320.715C161.183 312.793 166.054 304.681 168.027 297.239Z"/><path fill="#323944" d="M190.366 276.367C194.556 276.275 198.839 276.356 203.071 276.276C202.798 284.658 202.999 294.404 202.976 302.883C202.883 315.316 202.882 327.75 202.973 340.184C206.732 339.946 211.1 340.143 214.939 340.106C223.517 340.023 232.236 340.242 240.804 340.019C240.866 343.749 240.751 347.557 240.678 351.292C224.398 350.891 206.66 351.163 190.333 351.233C190.547 326.279 190.559 301.322 190.366 276.367Z"/><path fill="#323944" d="M271.722 297.255C276.249 297.194 280.777 297.201 285.304 297.277C285.761 299.777 287.137 302.315 287.82 304.773C290.386 314.015 295.096 322.333 298.066 331.413C298.715 333.396 299.504 335.423 300.219 337.391C301.667 332.817 303.957 328.152 305.626 323.662C306.831 320.421 307.659 317.304 308.966 314.019C310.888 309.192 314.643 302.046 315.882 297.267C320.211 297.224 324.54 297.225 328.869 297.271C327.21 299.66 325.755 304.478 324.868 307.34C323.557 311.225 320.741 316.541 319.095 320.508C317.125 325.256 315.685 329.776 313.756 334.487C311.449 340.122 308.7 345.552 306.743 351.342C303.15 351.108 297.592 351.242 293.948 351.329C290.845 345.199 289.15 340.184 286.791 333.788C284.434 328.439 281.909 323.173 279.959 317.654C277.487 310.658 274.093 304.353 271.722 297.255Z"/><path fill="#FD7308" d="M525.772 281.938C528.944 282.103 534.475 281.899 537.627 281.751C537.665 286.267 537.887 292.355 537.548 296.745C542.455 296.485 548.453 296.515 553.417 296.501L553.293 307.62C550.51 307.958 540.434 308.024 537.531 307.861C537.874 314.884 536.73 333.905 538.972 339.272C540.212 340.273 541.342 340.739 542.775 341.425C545.396 341.293 547.083 340.941 549.624 340.434C550.248 340.317 551.432 340.086 551.851 340.504C553.623 342.269 553.858 347.51 554.087 349.908C547.307 352.704 539.612 354.054 532.981 350.155C527.872 347.149 525.99 343.004 525.673 337.216C525.586 335.612 525.355 333.922 525.351 332.298C525.305 315.754 525.382 299.203 525.365 282.659C525.5 282.418 525.636 282.178 525.772 281.938Z"/><path fill="#323944" d="M251.106 297.136C254.673 297.248 259.23 297.275 262.749 297.137C262.862 308.149 262.58 319.24 262.566 330.26C262.563 332.919 263.119 350.194 262.372 351.209C258.945 351.06 254.706 351.2 251.221 351.222C251.098 340.608 251.07 329.994 251.136 319.38C251.175 312.307 251.393 304.123 251.106 297.136Z"/><path fill="#FD7308" d="M362.642 51.2915C382.809 50.7894 399.863 63.6404 405.832 82.7022C407.267 87.2873 410.299 98.5434 403.807 100.069C401.597 99.4504 400.22 98.8432 399.489 96.5191C398.088 92.0593 398.83 86.3819 396.976 82.0234C392.406 71.2801 382.791 62.5223 371.154 60.3198C367.52 59.6321 363.506 60.153 360.08 58.6966C356.387 56.8684 358.864 52.0216 362.642 51.2915Z"/><path fill="#FD7308" d="M361.24 68.1809C369.445 67.5599 373.713 69.3341 380.439 73.9228C387.745 78.9076 394.947 92.7805 388.392 100.673C386.056 99.942 384.33 98.8892 383.551 96.4061C381.961 91.3391 381.59 87.1857 378.531 82.6057C374.126 76.0101 367.89 78.1052 361.453 75.7643C357.33 74.2479 357.696 70.3366 361.24 68.1809Z"/><path fill="#323944" d="M508.88 384.341C511.024 384.195 513.464 384.174 515.375 385.311C519.904 388.007 519.299 395.899 515.168 398.713C514.371 399.256 513.212 399.483 512.271 399.693C510.984 399.85 509.832 399.881 508.597 399.423C506.357 398.583 504.558 396.864 503.618 394.665C502.79 392.746 502.797 390.57 503.638 388.656C504.769 386.13 506.496 385.298 508.88 384.341ZM512.197 397.164C513.972 396.124 515.505 395.022 516.103 392.913C516.477 391.642 516.312 390.274 515.647 389.129C514.232 386.696 511.855 386.316 509.322 386.295C504.184 389.191 505.124 397.682 512.197 397.164Z"/><path fill="#323944" d="M437.41 384.243C442.831 384.216 451.454 383.844 451.631 391.552C451.689 394.086 450.638 395.561 448.979 397.283C445.662 400.09 441.521 399.644 437.361 399.64C437.72 394.921 436.979 388.548 437.41 384.243ZM440.133 396.983C442.444 397.054 444.269 397.178 446.288 395.798C452.179 389.353 445.836 386.85 440.133 386.185C440.395 389.37 440.294 393.753 440.133 396.983Z"/><path fill="#323944" d="M481.013 384.219C486.081 384.368 495.664 384.07 495.304 392.054C495.209 394.149 493.829 395.902 492.585 397.501C489.043 400.177 485.158 399.67 480.863 399.606C481.185 394.937 481.08 388.929 481.013 384.219ZM483.922 396.891C486.285 396.963 488.64 397.303 490.48 395.602C493.518 391.559 492.647 390.069 489.147 386.932C487.397 386.623 485.638 386.371 483.872 386.175C483.922 389.638 484.029 393.434 483.922 396.891Z"/><path fill="#323944" d="M255.552 275.01C259.393 274.108 263.248 276.456 264.208 280.283C265.168 284.11 262.878 287.999 259.065 289.016C256.547 289.688 253.863 288.951 252.041 287.088C250.219 285.226 249.541 282.526 250.269 280.024C250.996 277.522 253.015 275.606 255.552 275.01Z"/><path fill="#323944" d="M219.236 384.271C220.047 384.25 220.858 384.233 221.668 384.223C228.807 384.135 237.109 386.137 228.79 393.947C229.734 395.256 232.499 398.399 231.197 399.74C230.224 399.743 230.093 399.711 229.174 399.387C227.937 397.593 226.199 394.15 223.71 394.25C221.565 395.66 222.586 398.244 221.256 400.048C219.494 399.959 219.359 396.98 219.321 395.646C219.213 391.858 219.279 388.066 219.236 384.271ZM222.468 392.277C223.937 392.246 225.293 392.312 226.678 391.834C229.875 390.308 230.155 388.015 226.473 386.565C225.994 386.376 224.528 386.307 223.944 386.263C222.681 386.559 222.926 386.293 222.372 387.119C222.02 389.286 222.595 390.241 222.468 392.277Z"/><path fill="#FD7308" d="M361.529 85.0092C362.648 84.9272 363.771 84.953 364.884 85.0863C368.605 85.5439 371.414 87.3024 373.627 90.2782C376.814 94.5628 376.152 97.3914 372.156 100.432C369.359 100.631 368.522 95.4634 367.321 94.3939C365.047 92.3696 357.895 91.43 357.961 87.4382C358.748 85.908 360.006 85.5041 361.529 85.0092Z"/><path fill="#323944" d="M94.0733 384.257C98.9445 384.189 100.647 384.306 105.312 385.486C107.072 390.394 105.467 390.208 104.096 394.467C103.958 394.894 106.963 398.052 105.556 399.741C104.289 399.961 104.123 399.752 103.379 398.804C102.042 397.015 100.019 393.649 97.5587 393.957C96.0539 394.145 96.752 398.48 95.3407 400.05L94.9009 399.688C93.5662 396.212 94.0063 388.251 94.0733 384.257ZM96.4577 392.125C98.7759 392.159 100.438 392.289 102.664 391.508C105.863 385.936 99.6193 386.273 96.1633 386.307L96.4577 392.125Z"/><path fill="#323944" d="M178.578 384.307C181.736 384.263 194.152 383.774 189.96 392.048C189.211 393.527 186.822 394.157 185.18 394.389L181.732 394.206C181.611 395.956 181.741 399.055 179.962 399.815C178.972 399.464 179.366 399.752 178.727 398.935C178.397 397.285 178.342 386.096 178.578 384.307ZM187.064 391.692C191.329 387.454 184.442 386.212 181.352 386.265C179.614 390.402 182.395 393.628 187.064 391.692Z"/><path fill="#323944" d="M147.84 394.945C147.726 392.5 147.438 386.354 148.725 384.496L149.249 384.449C151.331 386.587 150.974 397.112 150.542 400.011C144.81 398.379 143.246 392.007 140.286 389.74C139.354 391.126 140.661 397.173 139.241 399.515L138.68 399.612C136.497 398.091 137.117 386.975 137.143 384.031C140.675 384.486 141.621 386.313 143.448 389.131C144.858 391.306 146.033 393.052 147.84 394.945Z"/><path fill="#323944" d="M202.529 384.085C206.713 384.048 206.38 388.353 207.89 391.494C208.727 393.237 211.323 397.749 210.528 399.394C208.867 399.571 206.999 396.876 205.965 395.667L200.301 395.705C199.665 396.893 198.747 399.063 197.311 399.325C195.487 397.052 200.772 386.258 202.529 384.085ZM204.406 394.133C204.823 394.015 205.551 393.951 205.687 393.554C206.185 392.098 204.8 388.106 203.698 387.223C202.641 388.997 200.731 392.031 202.531 393.728C203.154 393.871 203.779 394.006 204.406 394.133Z"/><path fill="#323944" d="M119.76 384.23C120.199 384.219 122.494 384.262 122.588 384.647C123.215 387.216 129.943 397.85 128.106 399.828C125.397 399.918 125.868 396.977 124.076 395.674L117.786 395.734C117.178 396.947 116.547 398.83 115.664 399.599C114.944 399.613 115.288 399.712 114.659 399.123C113.76 396.011 118.251 387.324 119.76 384.23ZM121.614 393.956C122.932 393.691 122.741 393.952 123.351 393.133C123.515 391.467 122.839 388.463 121.207 387.754C120.082 390.153 117.562 393.604 121.614 393.956Z"/><path fill="#323944" d="M321.492 384.071C322.137 384.076 323.141 384.06 323.618 384.46C325.222 385.801 330.143 398.124 330.341 399.227C329.876 399.995 330.193 399.71 329.324 400.067C327.546 399.65 326.969 396.938 325.574 395.693C323.551 395.624 321.523 395.654 319.498 395.666C318.767 396.994 317.84 399.011 316.453 399.621L316.144 399.213C315.795 395.364 319.356 387.309 321.492 384.071ZM323.612 394.165L324.771 393.937C325.691 392.372 324.098 388.425 322.796 387.531C321.143 390.532 318.713 393.567 323.612 394.165Z"/><path fill="#323944" d="M464.143 384.162C464.993 384.129 465.564 384.073 466.33 384.6C468.517 386.104 473.655 397.891 471.922 399.831C470.22 399.047 470.716 396.021 467.612 395.666L462.285 395.689C461.769 397.224 461.281 399.688 459.404 399.614C458.494 398.83 458.686 399.214 458.441 398.16C458.928 396.08 463.008 385.784 464.143 384.162Z"/><path fill="#323944" d="M270.552 394.792C270.46 392.842 269.987 385.124 271.641 384.144C273.629 385.749 273.535 398.306 272.794 400.542C270.784 399.531 263.708 390.501 262.144 388.333C262.398 390.49 263.392 397.515 261.367 398.861L260.939 398.503C259.899 395.39 260.281 387.653 260.335 384.045C264.372 384.975 268.206 391.414 270.552 394.792Z"/><path fill="#323944" d="M403.253 384.157C403.903 384.202 404.626 384.315 405.28 384.403C407.016 385.758 404.717 397.537 408.862 397.68C416.07 397.929 411.423 386.689 414.139 384.415C415.181 384.222 414.782 384.153 415.703 384.559C416.339 385.419 416.217 385.73 416.19 386.875C416.277 390.182 416.786 395.829 414.398 398.267C411.927 400.735 407.038 400.338 404.774 397.779C402.198 394.866 403.05 387.948 403.253 384.157Z"/><path fill="#323944" d="M350.5 384.323C352.857 384.24 359.811 383.732 361.315 385.447C360.108 386.661 354.648 386.479 352.816 386.468C352.933 387.923 352.861 389.091 352.798 390.544C354.694 390.445 359.079 390.198 360.029 392.115L359.605 392.641C357.332 393.64 355.611 393.415 353.156 393.41C352.768 394.154 352.83 395.931 352.802 396.862C354.905 396.853 361.433 396.211 361.972 398.638L361.53 399.14C358.787 399.955 353.484 399.645 350.42 399.595C350.417 395.975 350.433 392.354 350.468 388.734C350.477 387.379 350.328 385.565 350.5 384.323Z"/><path fill="#323944" d="M240.873 384.228C242.67 384.224 250.767 383.756 251.385 385.477C249.898 386.595 244.709 386.459 242.755 386.429C242.855 387.583 242.862 389.217 243.385 390.172C246.079 392.395 248.425 389.031 250.737 391.561C250.936 392.501 251.014 392.073 250.487 392.885C249.242 393.407 245.801 393.237 244.264 393.237C243.723 393.226 243.685 393.309 243.186 393.554C242.706 394.527 242.912 395.91 242.958 397.062C245.165 397.027 250.186 396.678 251.861 398.088L251.724 398.592C249.137 400.265 243.65 399.706 240.582 399.601C240.571 397.173 240.398 385.852 240.873 384.228Z"/><path fill="#323944" d="M289.379 384.319C290.826 384.178 294.923 384.8 295.702 386.042C295.101 387.505 293.305 387.488 291.976 387.038C281.016 383.324 282.887 402.042 293.986 395.41C294.652 395.477 294.967 395.777 295.359 396.281C295.326 396.658 295.376 397.024 295.174 397.306C292.709 400.734 288.44 400.553 285.371 398.476C283.585 397.291 282.369 395.419 282.013 393.306C281.657 391.292 282.045 388.83 283.291 387.191C285.13 384.773 286.663 384.718 289.379 384.319Z"/><path fill="#323944" d="M388.067 384.298C389.581 384.472 394.244 384.748 394.758 386.217C392.675 388.67 386.043 384.225 384.453 388.933C383.311 392.314 384.074 395.533 387.686 396.921C389.412 397.584 391.493 396.404 393.027 395.67C393.345 395.466 393.201 395.555 393.686 395.562L394.116 396.232C394.225 398.18 392.899 399.406 391.074 399.746C384.503 400.968 379.74 395.579 381.488 389.225C381.955 387.524 382.708 386.773 383.767 385.395C385.211 385.073 386.645 384.706 388.067 384.298Z"/><path fill="#323944" d="M163.491 384.329C164.92 384.247 169.264 384.498 169.77 385.986C168.009 387.381 163.305 385.487 161.584 387.35C161.886 390.094 167.017 390.899 169.409 393.177L169.64 393.4C170.019 395.878 169.847 396.438 169.047 398.764C167.841 399.146 166.394 399.498 165.155 399.831C163.723 399.839 162.31 399.544 160.896 399.306C160.19 398.471 159.539 397.805 159.403 396.747L159.776 396.309C162.245 395.946 165.876 398.164 167.939 396.535C168.131 395.778 167.942 395.52 167.655 394.79C166.542 393.623 162.661 392.78 160.873 392.28C158.002 388.782 158.65 384.994 163.491 384.329Z"/><path fill="#323944" d="M80.1019 384.361C81.8404 384.253 84.5059 383.886 85.718 385.311L85.4706 385.788C83.8367 386.67 82.4675 386.454 80.6869 386.288C80.8253 389.563 81.5363 397.63 80.1193 400.095C79.3922 400.052 79.2812 400.118 78.7037 399.673C77.6483 397.548 78.1417 389.198 78.2023 386.579C75.6596 386.488 74.7756 386.06 72.4622 385.043C75.0254 384.476 77.4838 384.466 80.1019 384.361Z"/><path fill="#323944" d="M304.576 384.015C305.784 384.239 306.025 384.081 306.843 384.825C307.137 386.762 307.14 398.456 306.657 400.174L305.468 399.852C304.894 399.364 304.629 399.088 304.441 398.338C303.955 396.396 303.839 385.267 304.576 384.015Z"/><path fill="#323944" d="M425.899 384.033C426.676 384.124 426.695 384.148 427.388 384.414C428.031 386.144 428.046 397.969 427.798 400.061C426.588 399.983 426.965 400.181 426.185 399.464C425.324 397.309 425.645 386.689 425.899 384.033Z"/><path d="M244.9 379.065C246.912 379.27 248.922 380.17 248.773 382.51L248.235 382.76C247.131 382.46 247.055 382.27 246.222 381.409C245.172 380.704 243.847 383.125 242.499 382.467C242.902 380.71 243.589 380.157 244.9 379.065Z"/></svg>